<svg width="321" height="51" viewBox="0 0 321 51" fill="none" xmlns="http://www.w3.org/2000/svg">
<path d="M44.6031 10.712C44.6725 10.8507 44.7418 10.9893 44.8111 11.128C44.8805 11.232 44.9325 11.3533 44.9671 11.492H43.0431C43.1125 11.6307 43.1818 11.804 43.2511 12.012C43.3205 12.1853 43.3898 12.3587 43.4591 12.532H35.2951L35.6071 13.572H39.8191L39.9751 14.352H39.4031C39.4378 14.4213 39.4551 14.508 39.4551 14.612C39.4551 14.716 39.4725 14.8027 39.5071 14.872H38.1031L38.1551 15.392H39.2471C39.2471 15.5307 39.2471 15.6693 39.2471 15.808C39.2818 15.912 39.2991 16.0333 39.2991 16.172H41.2231C41.2578 16.3107 41.2751 16.432 41.2751 16.536C41.2751 16.64 41.2751 16.7613 41.2751 16.9V16.952H36.3871C36.3871 17.1253 36.3871 17.2987 36.3871 17.472C36.4218 17.6453 36.4391 17.8187 36.4391 17.992H37.5311C37.5311 18.1653 37.5311 18.3387 37.5311 18.512C37.5658 18.6853 37.5831 18.8587 37.5831 19.032H39.4551V19.292H38.7271V20.332H38.9351V21.112H42.0031V22.152H39.0911V22.672H38.7791C38.7791 22.7413 38.7791 22.828 38.7791 22.932C38.7791 23.036 38.7618 23.1227 38.7271 23.192H37.7911V24.232H37.8951C37.8605 24.336 37.8431 24.4747 37.8431 24.648V24.752H39.7671C39.7671 24.8907 39.7498 25.0293 39.7151 25.168C39.7151 25.272 39.7151 25.3933 39.7151 25.532H40.4951C40.4951 25.7053 40.4778 25.8787 40.4431 26.052C40.4431 26.2253 40.4258 26.3987 40.3911 26.572H39.2471C39.2125 26.6413 39.1951 26.728 39.1951 26.832C39.1951 26.936 39.1778 27.0227 39.1431 27.092H32.9031C32.9031 27.2307 32.8685 27.404 32.7991 27.612H38.2591C38.1898 27.82 38.1551 27.9933 38.1551 28.132H38.9351C38.9005 28.2707 38.8658 28.4093 38.8311 28.548C38.8311 28.652 38.7965 28.7733 38.7271 28.912L38.5711 29.432H37.0631L36.9591 29.692H39.4031C39.3338 29.8307 39.2991 29.9173 39.2991 29.952H37.7391L37.6351 30.212H37.5831C37.5138 30.3853 37.4445 30.5587 37.3751 30.732C37.3058 30.9053 37.2191 31.0787 37.1151 31.252H36.3351L35.7631 32.292H36.6471L36.3351 32.812H36.3871C36.3178 32.8813 36.2485 32.968 36.1791 33.072C36.1098 33.176 36.0405 33.2627 35.9711 33.332H35.6071C35.5031 33.436 35.4338 33.5227 35.3991 33.592C35.2951 33.7307 35.1911 33.8693 35.0871 34.008C34.9831 34.112 34.8618 34.2333 34.7231 34.372H34.5671C34.3938 34.5453 34.2031 34.7187 33.9951 34.892C33.8218 35.0653 33.6311 35.2387 33.4231 35.412H33.8911L32.7991 36.192H32.8511C32.5738 36.3653 32.2791 36.5387 31.9671 36.712C31.6551 36.8853 31.3258 37.0587 30.9791 37.232H30.9271C30.5805 37.4053 30.1471 37.5787 29.6271 37.752H29.6791C28.9858 37.9947 28.2578 38.2027 27.4951 38.376C26.7325 38.5493 25.9525 38.688 25.1551 38.792H26.2471C25.6925 38.8613 25.1205 38.9133 24.5311 38.948C23.9418 38.9827 23.3351 39 22.7111 39H7.47514C7.16314 39 6.92047 38.9307 6.74714 38.792H5.65514C5.30847 38.584 5.10047 38.2373 5.03114 37.752H4.97914V37.232H5.08314V36.192H4.97914V35.412H4.56314V34.372H4.71914V33.592H4.66714V33.332H5.08314V32.812H5.03114V32.292H4.09514V31.252H4.92714V30.212H4.97914V29.952H6.53914V29.692H4.14714V29.432H5.65514V28.132H4.92714V27.612H4.87514V27.092H6.22714V26.572H0.247141V25.532H0.0391405V24.752H0.715141V24.232H2.84714V23.192H4.19914V22.672H4.97914V22.152H5.81114V21.112H7.00714V20.332H8.15114V19.292H4.66714V19.032H3.52314V17.992H1.23514V16.952H7.16314V16.172H2.58714V15.392H5.08314V14.872H4.97914V14.352H4.56314V13.572H2.32714V12.532H10.4391V11.492H12.3631V10.712H3.00314V9.672H9.13914V9.412H4.30314V9.152H14.1311V8.112H12.8831V7.852H0.507141V6.812H2.01514V6.032H5.23914V5.772H6.95514V5.252H6.01914V4.992H4.92714V4.472H5.03114V4.004C5.03114 3.93467 5.03114 3.88267 5.03114 3.848C5.06581 3.77866 5.08314 3.72667 5.08314 3.692H5.29114C5.46447 2.964 5.93247 2.6 6.69514 2.6H21.6711C24.3405 2.6 26.7671 2.964 28.9511 3.692H28.7431C29.3671 3.9 30.0085 4.16 30.6671 4.472H30.5631C30.7365 4.54133 30.9098 4.628 31.0831 4.732C31.2911 4.80133 31.4645 4.888 31.6031 4.992H32.6951L33.1631 5.252H34.0471C34.2205 5.32133 34.3591 5.408 34.4631 5.512C34.6018 5.616 34.7405 5.70266 34.8791 5.772H33.1631C33.2325 5.80667 33.3018 5.84133 33.3711 5.876C33.4405 5.91066 33.4925 5.96267 33.5271 6.032H30.3031L31.2911 6.812H29.7311C30.1125 7.124 30.4591 7.47067 30.7711 7.852H43.1471C43.1818 7.88666 43.2165 7.92133 43.2511 7.956C43.2858 7.99067 43.3205 8.04267 43.3551 8.112H44.6551C44.7938 8.25066 44.9325 8.424 45.0711 8.632C45.2098 8.80533 45.3311 8.97866 45.4351 9.152H35.6071C35.6418 9.18667 35.6765 9.22133 35.7111 9.256C35.7458 9.29066 35.7805 9.34267 35.8151 9.412H40.6511L40.8071 9.672H34.6711C34.9138 10.0187 35.1045 10.3653 35.2431 10.712H44.6031ZM26.2471 14.352C26.0391 14.04 25.7791 13.78 25.4671 13.572H21.2551C20.4925 13.0173 19.5565 12.74 18.4471 12.74H15.3271V13.572H17.5631V14.352H17.9791V14.872H18.0831V15.392H15.5871V16.172H20.1631V16.952H14.2351V17.992H16.5231V19.032H17.6671V19.292H21.1511V20.332H20.0071V21.112H18.8111V22.152H17.9791V22.672H17.1991V23.192H15.8471V24.232H13.7151V24.752H13.0391V25.532H13.2471V26.572H19.2271V27.092H17.8751V27.612H17.9271V28.132H18.6551V28.86H22.0351C23.0405 28.86 23.8898 28.6173 24.5831 28.132H23.7511C23.8551 28.0627 23.9591 27.9933 24.0631 27.924C24.1671 27.82 24.2538 27.716 24.3231 27.612H18.9151C18.9845 27.5427 19.0538 27.4733 19.1231 27.404C19.1925 27.3 19.2445 27.196 19.2791 27.092H25.5191C25.5885 27.0227 25.6405 26.9533 25.6751 26.884C25.7098 26.78 25.7445 26.676 25.7791 26.572H26.9751C27.0445 26.3987 27.0965 26.2253 27.1311 26.052C27.1658 25.8787 27.2005 25.7053 27.2351 25.532H26.4551C26.4898 25.3933 26.5071 25.272 26.5071 25.168C26.5071 25.0293 26.5245 24.8907 26.5591 24.752H24.6351V24.648C24.6351 24.5787 24.6351 24.5093 24.6351 24.44C24.6698 24.3707 24.6871 24.3013 24.6871 24.232H24.5831C24.5831 24.0587 24.5831 23.8853 24.5831 23.712C24.5831 23.504 24.6005 23.3307 24.6351 23.192H25.5711V22.672H25.8831L25.9351 22.152H28.8471V21.112H25.7791V20.332H25.5711V19.292H26.2991V19.032H24.3751V17.992H23.2311C23.2311 17.8187 23.2311 17.6453 23.2311 17.472C23.2311 17.2987 23.2138 17.1253 23.1791 16.952H28.0671V16.9C28.0671 16.7613 28.0498 16.64 28.0151 16.536C28.0151 16.3973 28.0151 16.276 28.0151 16.172H26.0911C26.0565 16.0333 26.0218 15.912 25.9871 15.808C25.9525 15.6693 25.9178 15.5307 25.8831 15.392H24.7911C24.7565 15.288 24.7218 15.2013 24.6871 15.132C24.6525 15.028 24.6178 14.9413 24.5831 14.872H25.9871C25.9525 14.768 25.9005 14.6813 25.8311 14.612C25.7965 14.508 25.7445 14.4213 25.6751 14.352H26.2471ZM42.6913 7.592V6.552H42.6393V5.772H43.1073V5.512H43.4193V4.472H43.1593V3.692H43.2113V2.652H43.4193V1.872H43.3153V1.404C43.3153 1.12667 43.35 0.935999 43.4193 0.831999H43.9393L44.0953 0.571999H43.6793C43.9567 0.190664 44.338 -3.09944e-06 44.8233 -3.09944e-06H53.6113C54.0967 -3.09944e-06 54.478 0.190664 54.7553 0.571999H55.1713L55.3273 0.831999H54.7553C54.8593 0.970666 54.9113 1.16133 54.9113 1.404V1.872H55.0153V2.652H54.8073V3.692H54.7553V4.472H55.0153V5.512H54.7033V5.772H54.2353V6.552H54.2873V7.592H54.6513V7.696C54.6513 8.008 54.53 8.32 54.2873 8.632H53.6633C53.4207 8.944 53.074 9.1 52.6233 9.1H43.8353C43.3847 9.1 43.0207 8.944 42.7433 8.632H43.3673C43.1593 8.35467 43.0553 8.04267 43.0553 7.696V7.592H42.6913ZM53.4033 18.512H58.2913V19.552H56.5233V20.072H54.5473V21.112H56.0553V21.372H55.0673V21.892H55.2233V22.412H55.4833V23.192H52.8833V23.972H54.5993V24.752H54.2873V25.272H55.1713V26.052H55.3793V26.832H55.0673V27.612H55.3273V28.132H55.0673V29.172H54.9633V29.952H54.7553V30.732H54.9633V31.252H55.0673V32.292H54.8593V32.812H55.1193V33.332H55.0673V34.112H55.2753V34.892H55.4313V35.152H55.0673V36.192H54.3393V37.232H54.8593V37.596C54.8593 37.7693 54.842 37.908 54.8073 38.012H54.4433C54.3393 38.3587 54.1487 38.6187 53.8713 38.792H54.9113C54.738 38.9307 54.478 39 54.1313 39H44.8233C44.5113 39 44.2687 38.9307 44.0953 38.792H43.0553C42.7433 38.6187 42.5353 38.3587 42.4313 38.012H42.7953C42.7607 37.908 42.7433 37.7693 42.7433 37.596V37.232H42.2233V36.192H42.9513V35.152H43.3153V34.892H43.1593V34.112H42.9513V33.332H43.0033V32.812H42.7433V32.292H42.9513V31.252H42.8473V30.732H42.6393V29.952H42.8473V29.172H42.9513V28.132H43.2113V27.612H42.9513V26.832H43.2633V26.052H43.0553V25.272H42.1713V24.752H42.4833V23.972H40.7673V23.192H43.3673V22.412H43.1073V21.892H42.9513V21.372H43.9393V21.112H42.4313V20.072H44.4073V19.552H46.1753V18.512H41.2873V17.992H45.6033V16.952H44.0433V16.172H44.9793V15.132H43.3153V14.872H42.9513V14.352H42.6393V13.572H43.0033V13.364C43.0033 12.9827 43.09 12.7053 43.2633 12.532H43.3153C43.5927 12.1507 43.974 11.96 44.4593 11.96H53.7673C54.2527 11.96 54.634 12.1507 54.9113 12.532H54.8073C55.0153 12.74 55.1193 13.0173 55.1193 13.364V13.572H54.7553V14.352H55.0673V14.872H55.4313V15.132H57.0953V16.172H56.1593V16.952H57.7193V17.992H53.4033V18.512ZM90.0759 38.012H91.7399V38.792H90.4399V39.052H90.8039C90.7693 39.1907 90.7519 39.312 90.7519 39.416C90.7519 39.5547 90.7346 39.6933 90.6999 39.832H90.6479V40.092H88.2039C88.1693 40.1613 88.1519 40.248 88.1519 40.352C88.1519 40.456 88.1346 40.5427 88.0999 40.612H91.1159C91.0813 40.7853 91.0466 40.9587 91.0119 41.132C90.9773 41.3053 90.9426 41.4787 90.9079 41.652H90.0759C90.0413 41.7907 90.0066 41.912 89.9719 42.016C89.9373 42.1547 89.8853 42.2933 89.8159 42.432H88.0999L87.8919 42.952H88.7759L88.5679 43.472H88.6719C88.6026 43.6453 88.5159 43.8187 88.4119 43.992H88.4639L87.9959 44.772C87.9613 44.8067 87.9266 44.8413 87.8919 44.876C87.8919 44.9107 87.8746 44.9627 87.8399 45.032C87.7706 45.1707 87.6839 45.292 87.5799 45.396C87.4759 45.5347 87.3719 45.6733 87.2679 45.812H87.1639L86.9039 46.072H87.8919L87.4239 46.592H86.2279C86.1239 46.6613 86.0199 46.748 85.9159 46.852C85.8119 46.956 85.7253 47.0427 85.6559 47.112H87.0599C86.9213 47.2507 86.7479 47.372 86.5399 47.476C86.3666 47.6147 86.1933 47.7533 86.0199 47.892H87.8919C87.6839 48.0307 87.4586 48.152 87.2159 48.256C87.0079 48.3947 86.7826 48.5333 86.5399 48.672H86.0199C85.8466 48.776 85.6559 48.8627 85.4479 48.932C85.2399 49.036 85.0493 49.1227 84.8759 49.192H81.9119C81.2533 49.4347 80.5773 49.6427 79.8839 49.816C79.1906 49.9893 78.4799 50.128 77.7519 50.232H80.8199C80.2999 50.3013 79.7626 50.3533 79.2079 50.388C78.6533 50.4227 78.0986 50.44 77.5439 50.44C76.9546 50.44 76.3653 50.4227 75.7759 50.388C75.2213 50.3533 74.6839 50.3013 74.1639 50.232H71.0959C69.5359 50.024 68.0973 49.6773 66.7799 49.192H69.7439C69.5359 49.1227 69.3279 49.036 69.1199 48.932C68.9119 48.8627 68.7039 48.776 68.4959 48.672H69.0159C68.7733 48.5333 68.5306 48.3947 68.2879 48.256C68.0453 48.152 67.8026 48.0307 67.5599 47.892H65.7399C65.5319 47.7533 65.3239 47.6147 65.1159 47.476C64.9426 47.372 64.7693 47.2507 64.5959 47.112H63.1919C62.9146 46.904 62.7066 46.7307 62.5679 46.592H63.7639C63.6599 46.5227 63.5559 46.436 63.4519 46.332C63.3479 46.228 63.2613 46.1413 63.1919 46.072H62.2039C62.1693 46.0027 62.1346 45.9507 62.0999 45.916C62.0653 45.8813 62.0133 45.8467 61.9439 45.812H62.0999C61.9613 45.6733 61.8399 45.5347 61.7359 45.396C61.6319 45.292 61.5279 45.1707 61.4239 45.032H61.3719C61.3373 44.9627 61.2679 44.876 61.1639 44.772H61.2159C61.1119 44.6333 61.0079 44.4947 60.9039 44.356C60.7999 44.252 60.7133 44.1307 60.6439 43.992L60.3319 43.472H60.2279C60.1933 43.4027 60.1586 43.316 60.1239 43.212C60.0893 43.108 60.0373 43.0213 59.9679 42.952H59.0839L58.8759 42.432H60.6439C60.6093 42.2933 60.5573 42.1547 60.4879 42.016C60.4533 41.912 60.4186 41.7907 60.3839 41.652H60.0719C60.0719 41.548 60.0546 41.444 60.0199 41.34C60.0199 41.2707 60.0199 41.2013 60.0199 41.132C60.0199 40.8893 60.0373 40.716 60.0719 40.612H59.9159C60.0199 40.404 60.1413 40.2307 60.2799 40.092H59.9679C60.1759 39.9533 60.3319 39.8667 60.4359 39.832H61.1119C61.3199 39.7627 61.5106 39.728 61.6839 39.728H71.8239C71.9973 39.728 72.1879 39.7627 72.3959 39.832H71.6679C71.8413 39.8667 71.9799 39.9533 72.0839 40.092H72.3959C72.5346 40.2307 72.6559 40.404 72.7599 40.612H72.9159L73.0199 40.768C73.2626 41.184 73.4879 41.4787 73.6959 41.652H73.9559C74.3373 41.9293 74.8573 42.068 75.5159 42.068C76.0359 42.068 76.4866 41.9293 76.8679 41.652H77.6999C78.0119 41.4093 78.2373 41.0627 78.3759 40.612H75.3599C75.4293 40.404 75.4639 40.2307 75.4639 40.092H77.9079C77.9426 40.0227 77.9599 39.936 77.9599 39.832H78.0119C78.0466 39.6933 78.0639 39.5547 78.0639 39.416C78.0639 39.312 78.0639 39.1907 78.0639 39.052H77.7519V38.792H78.9999V38.012H77.3359V37.752H76.3479V37.492H77.2839V36.452H76.2959V36.14L75.7759 36.452H75.7239C74.8919 36.9373 73.9906 37.284 73.0199 37.492H73.2279C72.9506 37.5267 72.6733 37.5787 72.3959 37.648C72.1186 37.6827 71.8239 37.7173 71.5119 37.752H70.2119C70.0039 37.7867 69.7959 37.804 69.5879 37.804C69.3799 37.804 69.1719 37.804 68.9639 37.804C68.7213 37.804 68.4786 37.804 68.2359 37.804C67.9933 37.804 67.7679 37.7867 67.5599 37.752H68.8079C68.4959 37.7173 68.1839 37.6827 67.8719 37.648C67.5599 37.5787 67.2479 37.5267 66.9359 37.492H66.7799C66.2599 37.388 65.7573 37.2493 65.2719 37.076C64.8213 36.9027 64.3706 36.6947 63.9199 36.452H63.9719C63.8333 36.3827 63.6946 36.3133 63.5559 36.244C63.4173 36.14 63.2786 36.036 63.1399 35.932H64.3359C64.1279 35.7587 63.9199 35.5853 63.7119 35.412C63.5386 35.2387 63.3653 35.0653 63.1919 34.892H58.9799L58.7199 34.632H61.1119C60.8346 34.2853 60.5919 33.9387 60.3839 33.592H61.0599C60.8173 33.2453 60.6266 32.8987 60.4879 32.552H60.3839C60.2106 32.1707 60.0719 31.824 59.9679 31.512H56.1719C56.1719 31.4427 56.1719 31.3907 56.1719 31.356C56.1373 31.3213 56.1199 31.2867 56.1199 31.252H59.6559L59.4999 30.732H59.7599C59.7253 30.5587 59.6733 30.3853 59.6039 30.212C59.5693 30.0387 59.5346 29.8653 59.4999 29.692H60.1239L59.9679 28.652H59.2919L59.2399 28.132H57.9919C57.9573 27.9587 57.9399 27.7853 57.9399 27.612C57.9399 27.4387 57.9226 27.2653 57.8879 27.092H57.4199C57.4199 26.9533 57.4199 26.832 57.4199 26.728C57.3853 26.5893 57.3679 26.4507 57.3679 26.312H58.0959V25.792H59.0319C59.0319 25.6533 59.0146 25.532 58.9799 25.428C58.9799 25.2893 58.9799 25.1507 58.9799 25.012H59.4479V24.232H58.6159C58.6159 24.0933 58.6159 23.972 58.6159 23.868C58.6159 23.7293 58.6333 23.5907 58.6679 23.452H58.7719V23.4C58.7719 23.2613 58.7719 23.14 58.7719 23.036C58.8066 22.932 58.8239 22.8107 58.8239 22.672H59.0319C59.0666 22.5333 59.0839 22.412 59.0839 22.308C59.0839 22.1693 59.1013 22.0307 59.1359 21.892C59.1706 21.8227 59.1879 21.736 59.1879 21.632C59.1879 21.528 59.2053 21.4413 59.2399 21.372H58.9799V21.112H59.2919C59.3266 20.9387 59.3613 20.7653 59.3959 20.592C59.4306 20.384 59.4653 20.2107 59.4999 20.072H59.4479C59.4826 19.9333 59.5173 19.812 59.5519 19.708C59.5866 19.5693 59.6213 19.4307 59.6559 19.292H60.0719C60.1413 19.1187 60.1933 18.9453 60.2279 18.772C60.2973 18.564 60.3666 18.3907 60.4359 18.252H60.6959L60.7999 17.992H60.0719C60.1066 17.9227 60.1413 17.836 60.1759 17.732C60.2106 17.628 60.2453 17.5413 60.2799 17.472L60.5919 16.692C60.6266 16.6227 60.6439 16.5707 60.6439 16.536C60.6786 16.5013 60.7133 16.4667 60.7479 16.432L60.9039 16.172C60.9733 16.1027 61.0253 16.016 61.0599 15.912C61.1293 15.808 61.1986 15.7213 61.2679 15.652C61.3026 15.5827 61.3373 15.5307 61.3719 15.496C61.4066 15.4613 61.4413 15.4267 61.4759 15.392H61.3719L61.9959 14.612C62.0999 14.5427 62.1866 14.456 62.2559 14.352C62.3599 14.248 62.4466 14.1613 62.5159 14.092H62.6199C62.6546 14.0227 62.6893 13.9707 62.7239 13.936C62.7933 13.9013 62.8453 13.8667 62.8799 13.832H63.4519C63.6599 13.624 63.8853 13.4507 64.1279 13.312H62.8279C62.9666 13.208 63.1053 13.1213 63.2439 13.052C63.3826 12.948 63.5213 12.8613 63.6599 12.792H64.0239C64.5093 12.5147 65.0986 12.2547 65.7919 12.012H67.5079C68.7559 11.6307 70.0906 11.44 71.5119 11.44C72.7599 11.44 73.9213 11.6307 74.9959 12.012H73.2799C73.8346 12.1853 74.3893 12.4453 74.9439 12.792H74.6319C74.7706 12.8613 74.8919 12.948 74.9959 13.052C75.1346 13.1213 75.2733 13.208 75.4119 13.312H76.6599C76.7986 13.3813 76.9199 13.468 77.0239 13.572C77.1279 13.676 77.2319 13.7627 77.3359 13.832H76.7639L77.0239 14.092H76.9719L77.4399 14.612C77.5093 14.6467 77.5613 14.6987 77.5959 14.768C77.6653 14.8373 77.7173 14.9067 77.7519 14.976V14.612H77.9599V14.092H78.8439V13.832H79.4159V13.312H76.8679C76.8679 13.104 76.9199 12.9307 77.0239 12.792H77.9079C78.0813 12.376 78.3759 12.116 78.7919 12.012H77.7519C77.8559 11.9773 77.9946 11.96 78.1679 11.96H87.2679C87.4413 11.96 87.5626 11.9773 87.6319 12.012H88.6719C89.0879 12.116 89.3826 12.376 89.5559 12.792H88.6719C88.7413 13 88.7759 13.1733 88.7759 13.312H91.3239V13.832H90.7519V14.092H89.8679V14.612H89.6599V15.392H89.7119V16.172H89.6599V17.472H89.7119V17.992H90.4399V18.252H90.1279V19.292H89.6599L89.7119 20.072V21.372H89.5559V21.892H89.3999V22.672H89.7119V23.452H90.3359V24.232H89.2439V25.012H89.6079V25.792H89.7119V26.312H87.9959L88.0479 27.092H88.2559V28.132H89.3999V28.652H90.3359V29.692H89.6599V30.732H89.4519V31.252H85.8639V31.512H89.6599V32.552H89.7639V33.592H89.0359L89.0879 34.632H86.6959V34.892H90.9079V35.932H89.0359V36.452H90.0239V37.492H89.0879V37.752H90.0759V38.012ZM72.5519 28.132C72.7946 28.3747 73.1066 28.548 73.4879 28.652H74.1119C74.2506 28.6867 74.3893 28.7213 74.5279 28.756C74.7013 28.756 74.8573 28.756 74.9959 28.756C75.1693 28.756 75.3253 28.756 75.4639 28.756C75.6373 28.7213 75.7933 28.6867 75.9319 28.652H74.9959C75.3773 28.548 75.6893 28.3747 75.9319 28.132H74.7879C75.0653 27.8547 75.2559 27.508 75.3599 27.092H75.1519L75.3079 26.312H76.9719C76.9719 26.2427 76.9893 26.1907 77.0239 26.156V25.792H76.9199V25.012H76.6079V24.232H77.6479V23.452H76.9719V23.348C76.9719 23.2093 76.9546 23.088 76.9199 22.984C76.9199 22.88 76.9026 22.776 76.8679 22.672H76.6079C76.5733 22.3947 76.4866 22.1347 76.3479 21.892H76.4519C76.3479 21.684 76.2266 21.5107 76.0879 21.372H76.2439C76.1053 21.2333 76.0013 21.1467 75.9319 21.112C75.5853 20.8693 75.0826 20.748 74.4239 20.748C73.7653 20.748 73.2626 20.8693 72.9159 21.112H72.6039C72.5346 21.1467 72.4306 21.2333 72.2919 21.372H72.5519C72.4133 21.5107 72.2919 21.684 72.1879 21.892H72.1359C72.1013 21.996 72.0666 22.1173 72.0319 22.256C71.9973 22.36 71.9453 22.4987 71.8759 22.672H71.6679C71.6333 22.8107 71.5986 22.9493 71.5639 23.088C71.5639 23.192 71.5639 23.3133 71.5639 23.452H71.4079V23.764C71.3733 23.868 71.3559 24.024 71.3559 24.232H72.1879V25.012H71.7199C71.7199 25.1507 71.7199 25.2893 71.7199 25.428C71.7546 25.532 71.7719 25.636 71.7719 25.74V25.792H70.8359L70.8879 26.312H70.1599L70.3159 27.092H70.7839C70.8879 27.508 71.0786 27.8547 71.3559 28.132H72.5519ZM77.6999 35.932H78.1679V35.568L77.6999 35.932ZM94.1327 7.592V6.552H94.0807V5.772H94.5487V5.512H94.8607V4.472H94.6007V3.692H94.6527V2.652H94.8607V1.872H94.7567V1.404C94.7567 1.12667 94.7914 0.935999 94.8607 0.831999H95.3807L95.5367 0.571999H95.1207C95.3981 0.190664 95.7794 -3.09944e-06 96.2647 -3.09944e-06H105.053C105.538 -3.09944e-06 105.919 0.190664 106.197 0.571999H106.613L106.769 0.831999H106.197C106.301 0.970666 106.353 1.16133 106.353 1.404V1.872H106.457V2.652H106.249V3.692H106.197V4.472H106.457V5.512H106.145V5.772H105.677V6.552H105.729V7.592H106.093V7.696C106.093 8.008 105.971 8.32 105.729 8.632H105.105C104.862 8.944 104.515 9.1 104.065 9.1H95.2767C94.8261 9.1 94.4621 8.944 94.1847 8.632H94.8087C94.6007 8.35467 94.4967 8.04267 94.4967 7.696V7.592H94.1327ZM104.845 18.512H109.733V19.552H107.965V20.072H105.989V21.112H107.497V21.372H106.509V21.892H106.665V22.412H106.925V23.192H104.325V23.972H106.041V24.752H105.729V25.272H106.613V26.052H106.821V26.832H106.509V27.612H106.769V28.132H106.509V29.172H106.405V29.952H106.197V30.732H106.405V31.252H106.509V32.292H106.301V32.812H106.561V33.332H106.509V34.112H106.717V34.892H106.873V35.152H106.509V36.192H105.781V37.232H106.301V37.596C106.301 37.7693 106.283 37.908 106.249 38.012H105.885C105.781 38.3587 105.59 38.6187 105.313 38.792H106.353C106.179 38.9307 105.919 39 105.573 39H96.2647C95.9527 39 95.7101 38.9307 95.5367 38.792H94.4967C94.1847 38.6187 93.9767 38.3587 93.8727 38.012H94.2367C94.2021 37.908 94.1847 37.7693 94.1847 37.596V37.232H93.6647V36.192H94.3927V35.152H94.7567V34.892H94.6007V34.112H94.3927V33.332H94.4447V32.812H94.1847V32.292H94.3927V31.252H94.2887V30.732H94.0807V29.952H94.2887V29.172H94.3927V28.132H94.6527V27.612H94.3927V26.832H94.7047V26.052H94.4967V25.272H93.6127V24.752H93.9247V23.972H92.2087V23.192H94.8087V22.412H94.5487V21.892H94.3927V21.372H95.3807V21.112H93.8727V20.072H95.8487V19.552H97.6167V18.512H92.7287V17.992H97.0447V16.952H95.4847V16.172H96.4207V15.132H94.7567V14.872H94.3927V14.352H94.0807V13.572H94.4447V13.364C94.4447 12.9827 94.5314 12.7053 94.7047 12.532H94.7567C95.0341 12.1507 95.4154 11.96 95.9007 11.96H105.209C105.694 11.96 106.075 12.1507 106.353 12.532H106.249C106.457 12.74 106.561 13.0173 106.561 13.364V13.572H106.197V14.352H106.509V14.872H106.873V15.132H108.537V16.172H107.601V16.952H109.161V17.992H104.845V18.512ZM157.124 36.192L157.488 37.232H156.604L156.708 37.492C156.708 37.5267 156.708 37.5787 156.708 37.648C156.743 37.6827 156.76 37.7173 156.76 37.752H156.448V37.856C156.448 38.272 156.292 38.584 155.98 38.792H156.032C155.859 38.9307 155.634 39 155.356 39H145.736C145.494 39 145.286 38.9827 145.112 38.948C144.974 38.8787 144.818 38.8267 144.644 38.792C144.367 38.6533 144.159 38.4973 144.02 38.324C143.882 38.116 143.778 37.9253 143.708 37.752H143.968V37.7L143.864 37.492L143.76 37.232H144.644L144.28 36.192H143.292L143.136 35.672H145.268L144.904 34.632H144.28L144.124 34.268H132.944L132.84 34.632H132.216L131.852 35.672H131.28L131.072 36.192H130.76L130.396 37.232H130.448L130.344 37.492L130.292 37.7L130.24 37.752H129.98C129.911 37.9253 129.807 38.116 129.668 38.324C129.53 38.4973 129.322 38.6533 129.044 38.792H130.604C130.466 38.8267 130.31 38.8787 130.136 38.948C129.963 38.9827 129.755 39 129.512 39H119.892C119.615 39 119.407 38.9307 119.268 38.792H117.708C117.362 38.5493 117.188 38.2373 117.188 37.856V37.752H117.5C117.5 37.648 117.518 37.5613 117.552 37.492L117.604 37.232H117.552L117.916 36.192H118.228L118.436 35.672H119.008L119.372 34.632H119.944L120.308 33.592H118.28L118.488 33.072H118.332L118.592 32.292H119.112L119.216 32.032H118.072L118.436 30.992H120.204L120.36 30.472H118.748L118.852 30.212H119.112L119.476 29.172H119.32L119.58 28.392H119.788L120.152 27.352H120.828L121.088 26.572L121.192 26.312H123.792L123.896 26.052H123.74L124 25.272H121.088L121.452 24.232H122.388L122.492 23.972H121.92L122.024 23.712H123.688L124.052 22.672H122.024L122.232 22.152H123.012L123.376 21.112H122.908L123.168 20.332H123.74L124.104 19.292H123.948L124.052 19.032H122.856L123.064 18.512H124.208L124.468 17.732H123.948L124 17.472H124.936L125.3 16.432H124.156L124.416 15.652H123.844L124 15.132H120.412L120.568 14.612H119.892L120.256 13.572H119.58L119.892 12.792H121.92L122.284 11.752H127.484L127.744 10.972H125.248L125.456 10.452H127.38L127.744 9.412H126.028L126.288 8.632H127.38L127.744 7.592H127.588L127.952 6.552H126.496L126.548 6.292H131.54L131.904 5.252H131.748L131.852 4.992H130.032L130.24 4.316L130.396 3.952H130.916L131.228 3.432H131.072C131.246 3.18933 131.488 2.99866 131.8 2.86C132.112 2.68666 132.494 2.6 132.944 2.6H144.228C144.679 2.6 145.06 2.68666 145.372 2.86C145.684 2.99866 145.927 3.18933 146.1 3.432H146.308L146.62 3.952H146.1C146.17 4.09067 146.204 4.212 146.204 4.316L146.464 4.992H148.284L148.336 5.252H148.492L148.856 6.292H143.916L144.02 6.552H145.476L145.84 7.592H145.996L146.36 8.632H145.268L145.528 9.412H147.244L147.608 10.452H145.684L145.892 10.972H148.388L148.648 11.752H143.448L143.812 12.792H141.784L142.044 13.572H142.668L143.032 14.612H141.004L141.212 15.132H149.48L149.636 15.652H149.22L149.48 16.432H148.44L148.804 17.472H147.556L147.608 17.732H149.48L149.74 18.512H149.792L150 19.032H148.284L148.388 19.292H150.052L150.416 20.332H150.988L151.248 21.112H151.092L151.456 22.152H152.288L152.496 22.672H150.988L151.352 23.712H152.392L152.444 23.972H152.184L152.288 24.232H151.352L151.664 25.272H154.628L154.888 26.052H155.044L155.148 26.312H152.496L152.6 26.572H152.652L152.912 27.352H152.236L152.6 28.392H152.34L152.652 29.172H152.808L153.172 30.212H152.912L153.016 30.472H154.628L154.836 30.992H153.016L153.38 32.032H154.524L154.628 32.292H154.108L154.42 33.072H154.524L154.732 33.592H156.76L157.124 34.632H157.748L158.112 35.672H155.98L156.136 36.192H157.124ZM135.388 15.652H136.012L135.752 16.432H137.884L137.624 15.652H138.04L137.884 15.132H135.544L135.388 15.652ZM137.104 17.472L136.844 16.588L136.584 17.472H137.104ZM133.984 23.712L133.88 23.972H134.452L134.4 24.128H140.276L140.224 23.972H140.484L140.432 23.712H139.392L139.08 22.672H140.588L140.432 22.152H139.548L139.236 21.112H139.392L139.184 20.332H138.612L138.3 19.292H136.636L136.532 19.032H138.248L138.092 18.512H138.04L137.78 17.732H136.116L135.908 18.512H134.764L134.608 19.032H135.752L135.7 19.292H135.856L135.544 20.332H134.972L134.712 21.112H135.18L134.868 22.152H134.088L133.932 22.672H135.96L135.648 23.712H133.984ZM182.182 15.912H184.158V16.952H184.054V17.992H182.234V18.772H182.702V19.812H182.286V20.852H181.35V21.112H178.074V21.476C178.074 21.5453 178.057 21.6147 178.022 21.684C178.022 21.7533 178.005 21.8227 177.97 21.892H179.166C178.993 22.5507 178.542 22.88 177.814 22.88H171.106C170.967 22.88 170.829 22.88 170.69 22.88C170.586 22.88 170.482 22.8973 170.378 22.932H172.458C172.285 22.9667 172.129 23.0013 171.99 23.036C171.851 23.0707 171.695 23.1227 171.522 23.192H173.238C173.134 23.2267 172.978 23.3133 172.77 23.452H173.758L173.446 23.712H173.706C173.498 23.92 173.342 24.18 173.238 24.492H171.678C171.609 24.6307 171.574 24.7173 171.574 24.752H171.054C171.054 24.7867 171.037 24.8213 171.002 24.856C171.002 24.8907 171.002 24.9427 171.002 25.012H171.626C171.591 25.0813 171.574 25.168 171.574 25.272C171.574 25.3413 171.557 25.428 171.522 25.532H171.834V26.312H171.106V26.832H171.834V27.612H172.614V28.652H171.47V28.912H170.638V29.172H173.758V29.952H172.198V30.472H172.718V30.992H171.522V32.032H170.846V32.292H170.17V33.072H171.938V33.852H171.002V34.632H171.938V34.892H171.834V35.412H170.69V35.932H171.522V36.972H171.73V37.752H171.522C171.453 38.2373 171.227 38.584 170.846 38.792H170.378C170.205 38.9307 169.962 39 169.65 39H159.77C159.458 39 159.215 38.9307 159.042 38.792H159.51C159.129 38.584 158.903 38.2373 158.834 37.752H159.042V36.972H158.834V35.932H158.002V35.412H159.146V34.892H159.25V34.632H158.314V33.852H159.25V33.072H157.482V32.292H158.158V32.032H158.834V30.992H160.03V30.472H159.51V29.952H161.07V29.172H157.95V28.912H158.782V28.652H159.926V27.612H159.146V26.832H158.418V26.312H159.146V25.532H158.834V25.012H158.21V24.752H158.73V24.492H160.29V23.712H160.03V23.452H159.094V23.192H157.378V22.932H155.298V21.892H154.154V21.112H157.43V20.852H158.366V19.812H158.782V18.772H158.314V17.992H160.134V16.952H160.238V15.912H158.262V15.132H159.926V14.092H158.314V13.832H158.834V13.364C158.834 13.1907 158.869 13 158.938 12.792H158.886C159.129 12.2373 159.562 11.96 160.186 11.96H169.286C169.875 11.96 170.291 12.2373 170.534 12.792H170.638C170.707 13 170.742 13.1907 170.742 13.364V13.832H170.222V14.092H171.834V14.248L172.042 14.092H172.146C172.215 14.0227 172.285 13.9707 172.354 13.936C172.423 13.9013 172.475 13.8667 172.51 13.832H172.614C173.307 13.3813 173.983 13.0347 174.642 12.792H174.746C175.439 12.5147 176.133 12.3067 176.826 12.168C177.519 12.0293 178.247 11.96 179.01 11.96H181.506C182.13 11.96 182.563 12.2373 182.806 12.792H182.702C182.771 13 182.806 13.1907 182.806 13.364V13.832H182.754V14.092H182.65V15.132H182.182V15.912ZM214.764 22.152H218.3C218.3 22.1867 218.283 22.2213 218.248 22.256C218.214 22.2907 218.179 22.3427 218.144 22.412H216.948C216.671 22.7587 216.29 22.932 215.804 22.932H205.664C205.179 22.932 204.798 22.7587 204.52 22.412H205.716L205.56 22.152H201.972L201.816 21.892C201.782 21.7533 201.695 21.58 201.556 21.372H200.672C200.464 20.9907 200.239 20.7307 199.996 20.592H201.296C201.019 20.4187 200.69 20.332 200.308 20.332C199.892 20.332 199.546 20.4187 199.268 20.592H198.176C197.899 20.7307 197.674 20.9907 197.5 21.372H197.032C196.963 21.5107 196.894 21.684 196.824 21.892H199.632C199.598 21.9613 199.58 22.048 199.58 22.152H200.984C200.95 22.2213 200.932 22.308 200.932 22.412H202.648C202.614 22.4813 202.596 22.568 202.596 22.672C202.596 22.776 202.579 22.8627 202.544 22.932H202.752V23.192H200.724V23.712H194.224V23.972H204.208C204.174 24.1453 204.156 24.3187 204.156 24.492C204.156 24.6653 204.156 24.8387 204.156 25.012H194.952V25.272H198.644V25.532H197.656V26.572H194.848C194.848 26.7107 194.848 26.8493 194.848 26.988C194.848 27.092 194.866 27.2133 194.9 27.352V27.872H198.02C198.02 28.1147 198.038 28.288 198.072 28.392H195.212C195.282 28.8427 195.351 29.1893 195.42 29.432H194.848C195.056 29.9173 195.351 30.264 195.732 30.472H197.448C197.726 30.576 198.02 30.628 198.332 30.628C198.714 30.628 199.026 30.576 199.268 30.472H199.996C200.308 30.2987 200.603 29.952 200.88 29.432H199.476L199.632 29.068C199.702 28.9293 199.771 28.808 199.84 28.704C199.944 28.5653 200.031 28.4613 200.1 28.392H203.74C204.052 28.1493 204.399 28.028 204.78 28.028H214.92C215.267 28.028 215.596 28.1493 215.908 28.392H212.268C212.615 28.6693 212.754 29.016 212.684 29.432H214.088C214.054 29.5707 214.019 29.7267 213.984 29.9C213.984 30.0733 213.95 30.264 213.88 30.472H213.1L212.944 30.992H216.272L216.168 31.252H215.076L214.972 31.512H209.2L209.044 31.772H215.336L214.764 32.812H215.284L215.128 33.072H211.228C211.124 33.2453 211.003 33.4187 210.864 33.592C210.76 33.7653 210.639 33.9387 210.5 34.112H209.564C209.53 34.1467 209.495 34.1813 209.46 34.216C209.426 34.2507 209.391 34.3027 209.356 34.372H212.944C212.91 34.4067 212.875 34.4413 212.84 34.476C212.806 34.5107 212.771 34.5627 212.736 34.632H210.136C210.102 34.6667 210.067 34.7013 210.032 34.736C209.998 34.7707 209.946 34.8227 209.876 34.892H212.06L211.54 35.412H211.28L211.02 35.672H211.644L211.02 36.192H211.956C211.783 36.3307 211.592 36.4693 211.384 36.608C211.211 36.712 211.02 36.8333 210.812 36.972H211.852L211.436 37.232H210.292L209.356 37.752H209.668C209.114 38.064 208.49 38.324 207.796 38.532H206.912C206.6 38.636 206.288 38.74 205.976 38.844C205.664 38.9133 205.352 38.9827 205.04 39.052H204.572C204.33 39.0867 204.087 39.1213 203.844 39.156C203.602 39.2253 203.359 39.2773 203.116 39.312H204.156C203.671 39.3813 203.168 39.4333 202.648 39.468C202.128 39.5027 201.591 39.52 201.036 39.52C200.516 39.52 200.014 39.5027 199.528 39.468C199.043 39.4333 198.558 39.3813 198.072 39.312H196.98C196.738 39.2773 196.495 39.2253 196.252 39.156C196.044 39.1213 195.819 39.0867 195.576 39.052H196.044C195.732 38.9827 195.42 38.9133 195.108 38.844C194.796 38.74 194.502 38.636 194.224 38.532H195.108C194.45 38.324 193.843 38.064 193.288 37.752H192.924C192.786 37.6827 192.63 37.6133 192.456 37.544C192.318 37.44 192.179 37.336 192.04 37.232H193.132L192.716 36.972H191.676L190.636 36.192H189.752C189.648 36.1227 189.544 36.036 189.44 35.932C189.336 35.828 189.25 35.7413 189.18 35.672H188.504L188.244 35.412H188.504L187.984 34.892H185.852C185.748 34.788 185.679 34.7013 185.644 34.632H188.244C188.14 34.528 188.071 34.4413 188.036 34.372H184.396C184.362 34.3027 184.292 34.216 184.188 34.112H185.124C184.986 33.9387 184.864 33.7653 184.76 33.592C184.656 33.4187 184.552 33.2453 184.448 33.072H188.348L188.192 32.812H187.672C187.568 32.6387 187.464 32.4653 187.36 32.292C187.291 32.1187 187.222 31.9453 187.152 31.772H180.912L180.808 31.512H186.58L186.476 31.252H187.568L187.464 30.992H184.136L183.98 30.472H182.264C182.23 30.2987 182.195 30.1253 182.16 29.952C182.126 29.7787 182.091 29.6053 182.056 29.432H182.576L182.42 28.392H185.28V27.872H182.16V27.612C182.126 27.4387 182.108 27.2653 182.108 27.092C182.108 26.9187 182.108 26.7453 182.108 26.572H184.916V25.532H185.904V25.272H182.212V25.012H191.416V23.972H181.484V23.712H187.984V23.192H190.012V22.932H189.804C189.839 22.8627 189.856 22.776 189.856 22.672C189.856 22.568 189.856 22.4813 189.856 22.412H188.192V22.152H186.788C186.788 22.048 186.806 21.9613 186.84 21.892H184.032C184.102 21.684 184.136 21.5107 184.136 21.372H184.656L184.812 20.592H185.904L186.216 19.552H186.32C186.355 19.4133 186.407 19.292 186.476 19.188C186.546 19.0493 186.598 18.9107 186.632 18.772H186.372C186.442 18.5987 186.511 18.4253 186.58 18.252C186.684 18.044 186.788 17.8707 186.892 17.732H186.58C186.65 17.5933 186.719 17.472 186.788 17.368C186.892 17.2293 186.996 17.0907 187.1 16.952H187.152C187.291 16.7787 187.43 16.6053 187.568 16.432C187.707 16.224 187.846 16.0507 187.984 15.912H188.036C188.244 15.6347 188.504 15.3747 188.816 15.132H188.556L188.868 14.872H188.764L189.076 14.612H191C191.07 14.5427 191.139 14.4907 191.208 14.456C191.278 14.4213 191.33 14.3867 191.364 14.352H190.22C190.29 14.2827 190.359 14.2307 190.428 14.196C190.498 14.1613 190.55 14.1267 190.584 14.092H190.168C190.792 13.676 191.399 13.3293 191.988 13.052H193.028C193.236 12.948 193.444 12.8613 193.652 12.792C193.86 12.688 194.068 12.6013 194.276 12.532H193.08C193.219 12.4627 193.34 12.4107 193.444 12.376C193.583 12.3413 193.722 12.3067 193.86 12.272H193.808C193.982 12.2027 194.138 12.1507 194.276 12.116C194.45 12.0813 194.606 12.0467 194.744 12.012H194.588C196.114 11.6307 197.708 11.44 199.372 11.44C200.308 11.44 201.192 11.492 202.024 11.596C202.856 11.7 203.636 11.8387 204.364 12.012H204.52C204.694 12.0467 204.85 12.0813 204.988 12.116C205.162 12.1507 205.318 12.2027 205.456 12.272H205.508C205.647 12.3067 205.768 12.3413 205.872 12.376C206.011 12.4107 206.15 12.4627 206.288 12.532H207.484C208.004 12.7053 208.438 12.8787 208.784 13.052H207.692C208.039 13.1907 208.368 13.364 208.68 13.572C208.992 13.7453 209.304 13.9187 209.616 14.092H210.032C210.102 14.1267 210.171 14.1613 210.24 14.196C210.31 14.2307 210.362 14.2827 210.396 14.352H211.54C211.61 14.3867 211.662 14.4213 211.696 14.456C211.766 14.4907 211.835 14.5427 211.904 14.612H209.98L210.292 14.872H210.396L210.708 15.132H210.916C211.09 15.2707 211.246 15.4093 211.384 15.548C211.523 15.652 211.662 15.7733 211.8 15.912H211.748C211.922 16.0853 212.078 16.2587 212.216 16.432C212.39 16.6053 212.546 16.7787 212.684 16.952H212.632C212.736 17.0907 212.84 17.2293 212.944 17.368C213.048 17.472 213.135 17.5933 213.204 17.732H213.516C213.655 17.9053 213.776 18.0787 213.88 18.252C213.984 18.4253 214.071 18.5987 214.14 18.772H214.452C214.522 18.9107 214.591 19.0493 214.66 19.188C214.73 19.292 214.782 19.4133 214.816 19.552H214.764C214.834 19.7253 214.903 19.8987 214.972 20.072C215.042 20.2453 215.094 20.4187 215.128 20.592H213.828L213.984 21.372H214.868V21.892L214.764 22.152ZM245.344 36.192V36.712H249.868V37.596C249.868 37.6653 249.851 37.7173 249.816 37.752H247.372C247.303 38.2373 247.077 38.584 246.696 38.792H246.228C246.055 38.9307 245.812 39 245.5 39H236.4C236.088 39 235.845 38.9307 235.672 38.792H236.088C235.741 38.5493 235.533 38.2027 235.464 37.752H237.96V36.712H235.88C235.707 36.8853 235.516 37.0587 235.308 37.232C235.135 37.4053 234.944 37.5787 234.736 37.752H234.164C233.54 38.2027 232.916 38.5493 232.292 38.792H230.628C230.385 38.896 230.108 38.9827 229.796 39.052C229.519 39.156 229.224 39.2427 228.912 39.312H228.496C228.149 39.3813 227.785 39.4333 227.404 39.468C227.057 39.5027 226.693 39.52 226.312 39.52C225.896 39.52 225.48 39.5027 225.064 39.468C224.683 39.4333 224.301 39.3813 223.92 39.312H224.336C223.989 39.2427 223.643 39.156 223.296 39.052C222.984 38.9827 222.672 38.896 222.36 38.792H223.972C223.209 38.5147 222.516 38.168 221.892 37.752H222.464C222.221 37.5787 221.996 37.4053 221.788 37.232C221.58 37.0587 221.372 36.8853 221.164 36.712H218.564L218.096 36.192C218.061 36.1227 218.009 36.036 217.94 35.932C217.871 35.828 217.801 35.7413 217.732 35.672H219.292C219.223 35.5333 219.136 35.412 219.032 35.308C218.963 35.1693 218.893 35.0307 218.824 34.892H218.356C218.356 34.8573 218.321 34.7707 218.252 34.632H217.784L217.628 34.372H217.68L217.368 33.592H217.108C217.073 33.4533 217.039 33.332 217.004 33.228C216.969 33.0893 216.935 32.9507 216.9 32.812H214.924C214.82 32.4307 214.768 32.084 214.768 31.772H216.484V31.252C216.484 31.0787 216.484 30.9053 216.484 30.732C216.484 30.524 216.501 30.3507 216.536 30.212H218.096C218.131 30.0387 218.165 29.8653 218.2 29.692C218.235 29.484 218.269 29.3107 218.304 29.172H216.848L216.952 28.912H217.004L217.108 28.652H217.056C217.125 28.5133 217.195 28.392 217.264 28.288C217.333 28.1493 217.385 28.0107 217.42 27.872H214.352L214.664 27.352H213.52C213.624 27.248 213.693 27.1613 213.728 27.092H215.6C215.669 27.0227 215.739 26.936 215.808 26.832C215.877 26.728 215.947 26.6413 216.016 26.572H216.12C216.467 26.156 216.831 25.8093 217.212 25.532H212.948C213.191 25.3587 213.451 25.1853 213.728 25.012C213.971 24.804 214.231 24.6307 214.508 24.492H217.368L217.836 24.232H219.292C219.361 24.1627 219.448 24.1107 219.552 24.076C219.656 24.0413 219.743 24.0067 219.812 23.972H220.436C221.06 23.66 221.736 23.4 222.464 23.192H225.636C226.121 23.0187 226.607 22.88 227.092 22.776C227.612 22.6373 228.149 22.516 228.704 22.412H227.404L228.236 22.256L233.748 21.372V21.112H236.4V20.852H231.408V20.592H234.372C234.372 20.4187 234.372 20.28 234.372 20.176C234.372 20.0373 234.355 19.916 234.32 19.812C234.285 19.5 234.164 19.24 233.956 19.032H233.072C233.037 18.9973 232.951 18.9453 232.812 18.876L232.448 19.032H231.564C231.425 19.136 231.287 19.2573 231.148 19.396C231.009 19.5 230.853 19.6387 230.68 19.812H230.732C230.351 20.1933 229.865 20.384 229.276 20.384H220.436C219.916 20.384 219.569 20.1933 219.396 19.812H219.344C219.24 19.6387 219.205 19.448 219.24 19.24V19.032H220.072C220.107 18.9627 220.124 18.876 220.124 18.772H216.796C216.796 18.6333 216.831 18.46 216.9 18.252H224.388C224.388 18.2173 224.423 18.1307 224.492 17.992H219.864C219.968 17.6453 220.124 17.2987 220.332 16.952H221.216C221.32 16.7787 221.441 16.6053 221.58 16.432C221.719 16.2587 221.857 16.0853 221.996 15.912H218.096L218.564 15.392H226.104C226.243 15.2533 226.381 15.132 226.52 15.028C226.693 14.8893 226.849 14.7507 226.988 14.612H222.204L222.516 14.352H221.06C221.233 14.2133 221.424 14.092 221.632 13.988C221.84 13.8493 222.048 13.7107 222.256 13.572H224.7C225.428 13.156 226.191 12.8093 226.988 12.532H227.352C228.288 12.1853 229.328 11.9253 230.472 11.752C231.651 11.544 232.933 11.44 234.32 11.44C237.163 11.44 239.572 11.804 241.548 12.532H241.132C241.513 12.6707 241.877 12.8267 242.224 13C242.605 13.1733 242.969 13.364 243.316 13.572H240.872L241.964 14.352H243.42L243.732 14.612H248.516L249.296 15.392H241.756C241.825 15.4613 241.895 15.548 241.964 15.652C242.033 15.756 242.103 15.8427 242.172 15.912H246.02C246.159 16.0507 246.28 16.224 246.384 16.432C246.523 16.6053 246.627 16.7787 246.696 16.952H245.864L246.332 17.992H250.96C251.029 18.1307 251.064 18.2173 251.064 18.252H243.576C243.645 18.3213 243.68 18.408 243.68 18.512C243.715 18.616 243.749 18.7027 243.784 18.772H245.5C245.5 18.8067 245.5 18.8413 245.5 18.876C245.535 18.9107 245.552 18.9627 245.552 19.032H246.436L246.748 20.592H243.732C243.732 20.6267 243.732 20.6613 243.732 20.696C243.767 20.7307 243.784 20.7827 243.784 20.852H248.776V21.112H246.176V21.372C246.211 21.5453 246.228 21.7187 246.228 21.892C246.228 22.0653 246.228 22.2387 246.228 22.412H247.58V23.192H244.356V23.972H243.784V24.232H242.38V24.492H239.52V25.532H243.784V26.572H243.68V27.092H241.808V27.352H242.952V27.872H246.384V28.652H245.76V29.172H246.176V30.212H245.864V31.772H244.148V32.812H246.124V33.592H246.384V34.632H246.852V34.892H247.268V35.672H245.656V36.192H245.344ZM230.264 18.72C230.021 18.72 229.848 18.7373 229.744 18.772H230.836C230.732 18.7373 230.541 18.72 230.264 18.72ZM230.628 27.768L230.16 27.872H230.628V27.768ZM228.86 29.172H230.316C229.935 29.4493 229.744 29.796 229.744 30.212H228.184V30.368C228.184 30.7147 228.305 31.0093 228.548 31.252C228.721 31.4947 229.068 31.668 229.588 31.772H230.836C231.356 31.668 231.807 31.4947 232.188 31.252C232.5 30.9747 232.795 30.628 233.072 30.212H233.332C233.401 30.0387 233.471 29.8827 233.54 29.744C233.609 29.5707 233.661 29.38 233.696 29.172H233.28C233.28 29.1027 233.28 29.0507 233.28 29.016C233.315 28.9813 233.332 28.9467 233.332 28.912H233.384V28.652H234.008C234.043 28.5133 234.06 28.392 234.06 28.288C234.06 28.1493 234.06 28.0107 234.06 27.872H233.176L230.628 28.444C230.489 28.4787 230.351 28.5133 230.212 28.548C230.108 28.5827 230.004 28.6173 229.9 28.652C229.796 28.6867 229.692 28.7213 229.588 28.756C229.484 28.7907 229.397 28.8427 229.328 28.912H229.276C229.207 28.9467 229.137 28.9813 229.068 29.016C228.999 29.0507 228.929 29.1027 228.86 29.172ZM229.12 31.772H227.82C227.959 31.8067 228.167 31.824 228.444 31.824C228.548 31.824 228.652 31.824 228.756 31.824C228.895 31.824 229.016 31.8067 229.12 31.772ZM279.616 30.732H277.536V31.252H277.692V31.772H284.192V32.812H281.644V33.332H278.108V34.112H283.62V34.632H280.552V34.892H280.136V35.932H278.316V36.452H279.98V36.972H278.472V37.596C278.472 37.6653 278.454 37.7347 278.42 37.804C278.42 37.8733 278.42 37.9427 278.42 38.012H279.668C279.668 38.0467 279.633 38.1333 279.564 38.272H279.98C279.737 38.7573 279.338 39 278.784 39H269.944C269.424 39 269.008 38.7573 268.696 38.272H268.28L268.124 38.012H266.876C266.841 37.9427 266.824 37.856 266.824 37.752L266.408 38.012H266.876L266.46 38.272H268.072C267.517 38.584 266.893 38.844 266.2 39.052H265.94C265.766 39.0867 265.576 39.1213 265.368 39.156C265.194 39.2253 265.021 39.2773 264.848 39.312H264.588C264.206 39.3813 263.808 39.4333 263.392 39.468C263.01 39.5027 262.612 39.52 262.196 39.52C261.745 39.52 261.312 39.5027 260.896 39.468C260.48 39.4333 260.081 39.3813 259.7 39.312H259.96C259.786 39.2773 259.596 39.2253 259.388 39.156C259.18 39.1213 258.989 39.0867 258.816 39.052H259.076C258.348 38.844 257.689 38.584 257.1 38.272H255.488L255.02 38.012H254.552C254.309 37.8387 254.066 37.6827 253.824 37.544C253.616 37.3707 253.408 37.18 253.2 36.972H254.76L254.24 36.452H251.016L250.548 35.932H252.42C252.142 35.5853 251.9 35.2387 251.692 34.892H252.108L251.952 34.632H254.968C254.898 34.4587 254.812 34.2853 254.708 34.112H249.196L248.884 33.332H252.368L252.212 32.812H254.76L254.448 31.772H247.948L247.792 31.252H247.688C247.618 31.044 247.584 30.8707 247.584 30.732H249.612C249.577 30.5587 249.542 30.3853 249.508 30.212C249.473 30.0387 249.438 29.8653 249.404 29.692H252.524C252.489 29.6227 252.472 29.536 252.472 29.432C252.472 29.328 252.472 29.2413 252.472 29.172H250.86C250.86 29.0333 250.842 28.912 250.808 28.808C250.808 28.6693 250.808 28.5307 250.808 28.392H249.768C249.768 28.2533 249.768 28.132 249.768 28.028C249.768 27.8893 249.75 27.7507 249.716 27.612H249.612V27.352C249.612 27.2133 249.594 27.092 249.56 26.988C249.56 26.8493 249.56 26.7107 249.56 26.572H248.78C248.745 26.4333 248.728 26.312 248.728 26.208C248.728 26.0693 248.728 25.9307 248.728 25.792H249.716V24.752H249.976V24.492H250.08V23.452H251.172V23.4C251.172 23.2267 251.172 23.0533 251.172 22.88C251.172 22.7067 251.189 22.5507 251.224 22.412H248.416C248.45 22.2733 248.468 22.152 248.468 22.048C248.468 21.9093 248.485 21.7707 248.52 21.632H250.704V21.372H250.808C250.842 21.3027 250.86 21.216 250.86 21.112C250.86 21.008 250.877 20.9213 250.912 20.852H251.068L251.224 20.072H250.08L250.184 19.812H250.028C250.062 19.6733 250.097 19.552 250.132 19.448C250.166 19.3093 250.201 19.1707 250.236 19.032H250.548C250.617 18.8587 250.669 18.6853 250.704 18.512C250.773 18.304 250.842 18.1307 250.912 17.992H250.808L250.912 17.732C250.981 17.5587 251.05 17.3853 251.12 17.212C251.224 17.004 251.328 16.8307 251.432 16.692L251.9 15.912H251.38L251.744 15.392H251.068C251.206 15.2533 251.345 15.08 251.484 14.872H253.304C253.373 14.8027 253.442 14.716 253.512 14.612C253.616 14.508 253.72 14.4213 253.824 14.352H252.004C252.246 14.1093 252.437 13.936 252.576 13.832H254.188C254.569 13.52 254.933 13.26 255.28 13.052H254.708C255.401 12.636 256.146 12.2893 256.944 12.012H256.164C257.412 11.6307 258.677 11.44 259.96 11.44C261.277 11.44 262.508 11.6307 263.652 12.012H264.432C265.194 12.2547 265.905 12.6013 266.564 13.052H269.32V12.012H268.176V10.972H269.736V10.192H269.684V9.152H267.396V8.632H267.864V8.112H268.228V7.852H267.916V7.592H267.76V7.332H267.708V7.072H267.552V6.812H267.448V5.772H266.356V4.732H267.552V4.472H267.708V3.432C267.708 3.29333 267.742 3.12 267.812 2.912H268.332C268.574 2.35733 269.008 2.08 269.632 2.08H279.252C279.876 2.08 280.309 2.35733 280.552 2.912H279.98C280.084 3.05066 280.136 3.24133 280.136 3.484V4.472H279.98V4.732H278.784V5.772H279.876V6.812H279.98V7.072H280.136V7.332H280.188V7.592H280.344V7.852H280.656V8.112H280.292V8.632H279.824V9.152H282.112V10.192H282.164V10.972H280.604V12.012H281.748V13.052H279.252V13.832H278.992V14.352H280.812V14.872H278.992V15.392H279.616V15.912H280.188V16.692H280.136V17.992H280.24V19.032H279.928V19.812H280.032V20.072H281.176V20.852H282.424V21.372H280.968V21.632H280.032V22.412H281.02V23.452H277.848V24.492H278.212V24.752H279.772V25.012H280.24V25.792H279.72V26.572H280.448V27.352H280.5V27.612H279.928V28.392H280.344V29.172H284.764V29.692H279.616V30.732ZM265.576 29.172C265.645 29.276 265.714 29.38 265.784 29.484C265.853 29.5533 265.922 29.6227 265.992 29.692H262.872C263.288 30.0387 263.86 30.212 264.588 30.212C265.281 30.212 265.853 30.0387 266.304 29.692H271.452C271.521 29.6227 271.59 29.5533 271.66 29.484C271.764 29.38 271.833 29.276 271.868 29.172H267.448C267.552 28.964 267.656 28.704 267.76 28.392H267.344C267.378 28.2533 267.396 28.132 267.396 28.028C267.43 27.8893 267.448 27.7507 267.448 27.612H268.072V27.352H268.02V27.196C268.02 27.092 268.02 26.988 268.02 26.884C268.02 26.78 268.037 26.676 268.072 26.572H267.344V25.792H267.864V25.012H267.448V24.752H265.836V24.492H265.524C265.489 24.3187 265.472 24.1453 265.472 23.972C265.472 23.7987 265.454 23.6253 265.42 23.452H268.592V23.348C268.557 22.9667 268.505 22.6547 268.436 22.412H267.448C267.344 22.0653 267.222 21.8053 267.084 21.632H268.02C267.985 21.5627 267.916 21.476 267.812 21.372H269.268C269.025 21.1293 268.713 20.956 268.332 20.852H267.084C266.945 20.8173 266.789 20.8 266.616 20.8C266.477 20.7653 266.321 20.748 266.148 20.748C265.974 20.748 265.818 20.7653 265.68 20.8C265.541 20.8 265.402 20.8173 265.264 20.852H265.108C264.726 20.956 264.414 21.1293 264.172 21.372H264.068C264.033 21.4413 263.964 21.528 263.86 21.632H261.728C261.589 21.8053 261.468 22.0653 261.364 22.412H264.12C264.085 22.5507 264.05 22.724 264.016 22.932C263.981 23.1053 263.946 23.2787 263.912 23.452H262.872V23.764C262.837 23.868 262.82 23.9893 262.82 24.128C262.82 24.232 262.802 24.3533 262.768 24.492H262.664V24.752H262.456V25.012C262.421 25.2547 262.421 25.5147 262.456 25.792H261.468V26.572H262.3C262.3 26.676 262.3 26.78 262.3 26.884C262.3 26.988 262.317 27.092 262.352 27.196V27.352C262.386 27.4213 262.404 27.508 262.404 27.612H262.508L262.664 28.392H263.704C263.773 28.704 263.877 28.964 264.016 29.172H265.576ZM311.29 24.752V25.272H317.894V25.792H313.89V26.312H312.018V26.832H313.63V27.144C313.63 27.352 313.613 27.508 313.578 27.612H314.306C314.064 28.236 313.613 28.548 312.954 28.548H297.458V28.652H299.538V28.808C299.538 28.9467 299.538 29.1027 299.538 29.276C299.538 29.4147 299.556 29.5533 299.59 29.692H296.782C296.782 29.796 296.782 29.9 296.782 30.004C296.817 30.0733 296.834 30.1427 296.834 30.212H296.522C296.522 30.3507 296.557 30.524 296.626 30.732H296.834C297.008 31.2173 297.285 31.564 297.666 31.772H296.262C296.505 31.9107 296.834 31.98 297.25 31.98C297.528 31.98 297.753 31.9107 297.926 31.772H300.37C300.509 31.7027 300.63 31.5987 300.734 31.46C300.873 31.3213 301.029 31.1827 301.202 31.044L301.514 30.732H300.526C300.838 30.4547 301.306 30.316 301.93 30.316H311.758C312.174 30.316 312.486 30.4547 312.694 30.732H313.63C313.804 30.9747 313.89 31.2173 313.89 31.46C313.856 31.5293 313.838 31.6333 313.838 31.772H311.394C311.325 32.1187 311.221 32.4653 311.082 32.812H308.534C308.43 32.9853 308.344 33.1587 308.274 33.332H314.722C314.653 33.5053 314.549 33.6787 314.41 33.852C314.306 34.0253 314.185 34.1987 314.046 34.372H312.486C312.348 34.58 312.209 34.7533 312.07 34.892H312.434C312.4 34.9267 312.365 34.9613 312.33 34.996C312.296 35.0307 312.261 35.0827 312.226 35.152H309.314L309.054 35.412H309.938C309.904 35.4467 309.852 35.4813 309.782 35.516C309.748 35.5507 309.713 35.6027 309.678 35.672H311.29C311.048 35.9147 310.736 36.1747 310.354 36.452H309.574C309.54 36.4867 309.488 36.5213 309.418 36.556C309.349 36.5907 309.28 36.6427 309.21 36.712H308.638C308.084 37.0933 307.477 37.44 306.818 37.752H306.142C305.726 37.96 305.276 38.1507 304.79 38.324C304.34 38.4973 303.854 38.6533 303.334 38.792H302.502C302.121 38.896 301.722 38.9827 301.306 39.052C300.89 39.156 300.44 39.2427 299.954 39.312H302.138C301.653 39.3813 301.15 39.4333 300.63 39.468C300.11 39.5027 299.556 39.52 298.966 39.52C298.412 39.52 297.857 39.5027 297.302 39.468C296.748 39.4333 296.21 39.3813 295.69 39.312H293.506C293.056 39.2427 292.622 39.156 292.206 39.052C291.79 38.9827 291.374 38.896 290.958 38.792H291.79C290.854 38.5493 289.97 38.2027 289.138 37.752H289.814C289.19 37.4053 288.653 37.0587 288.202 36.712H288.774C288.705 36.6427 288.636 36.5907 288.566 36.556C288.532 36.5213 288.48 36.4867 288.41 36.452H289.19C289.052 36.3133 288.913 36.192 288.774 36.088C288.636 35.9493 288.497 35.8107 288.358 35.672H286.694L286.434 35.412H285.55C285.516 35.3427 285.481 35.2907 285.446 35.256C285.412 35.2213 285.377 35.1867 285.342 35.152H288.202C288.168 35.0827 288.098 34.996 287.994 34.892H287.63C287.561 34.8227 287.492 34.736 287.422 34.632C287.353 34.528 287.284 34.4413 287.214 34.372H288.774C288.67 34.1987 288.566 34.0253 288.462 33.852C288.358 33.6787 288.254 33.5053 288.15 33.332H281.65C281.546 33.1587 281.46 32.9853 281.39 32.812H283.938L283.47 31.772H284.874C284.805 31.5987 284.736 31.4253 284.666 31.252C284.632 31.0787 284.58 30.9053 284.51 30.732H284.354L284.198 30.212H284.562L284.406 29.692H287.214C287.18 29.5187 287.145 29.3453 287.11 29.172C287.076 28.9987 287.041 28.8253 287.006 28.652H284.926L284.822 27.612H284.094C284.094 27.4733 284.077 27.352 284.042 27.248C284.042 27.1093 284.042 26.9707 284.042 26.832H282.43V26.312H284.25V25.792H288.254V25.272H281.65V25.168C281.65 24.9947 281.668 24.856 281.702 24.752H290.698C290.698 24.6133 290.698 24.492 290.698 24.388C290.733 24.2493 290.75 24.1107 290.75 23.972H282.482C282.482 23.9027 282.482 23.8507 282.482 23.816C282.517 23.7813 282.534 23.7467 282.534 23.712H285.966C285.966 23.608 285.984 23.5213 286.018 23.452H289.866V23.192H282.534C282.569 23.0187 282.604 22.8453 282.638 22.672C282.673 22.4987 282.708 22.3253 282.742 22.152H284.718C284.718 22.0133 284.753 21.84 284.822 21.632H283.106C283.106 21.5627 283.106 21.5107 283.106 21.476C283.141 21.4413 283.158 21.4067 283.158 21.372H284.406C284.406 21.3027 284.406 21.2507 284.406 21.216C284.441 21.1813 284.458 21.1467 284.458 21.112H283.158L283.262 20.852H284.51L284.666 20.332H285.654L285.966 19.552H285.03C285.1 19.3787 285.169 19.2053 285.238 19.032C285.308 18.824 285.394 18.6507 285.498 18.512H285.342L285.446 18.252H284.146C284.216 18.1133 284.25 18.0267 284.25 17.992H283.054L283.366 17.472H285.914C285.949 17.4027 286.018 17.316 286.122 17.212H287.058C287.197 17.0387 287.318 16.8653 287.422 16.692C287.561 16.484 287.7 16.3107 287.838 16.172H286.902C287.006 16.0333 287.11 15.912 287.214 15.808C287.353 15.6693 287.492 15.5307 287.63 15.392H289.658L290.178 14.872H287.11C287.561 14.4907 288.012 14.144 288.462 13.832H291.322L291.738 13.572H290.802C291.08 13.3987 291.409 13.2253 291.79 13.052H293.818C294.754 12.6013 295.725 12.2547 296.73 12.012H293.818C294.581 11.8387 295.378 11.7 296.21 11.596C297.042 11.492 297.909 11.44 298.81 11.44C299.712 11.44 300.561 11.492 301.358 11.596C302.156 11.7 302.918 11.8387 303.646 12.012H306.506C307.026 12.1507 307.512 12.3067 307.962 12.48C308.448 12.6533 308.916 12.844 309.366 13.052H307.338C307.512 13.1213 307.668 13.208 307.806 13.312C307.98 13.3813 308.136 13.468 308.274 13.572H309.21C309.28 13.6067 309.349 13.6413 309.418 13.676C309.488 13.7107 309.557 13.7627 309.626 13.832H306.766C307.217 14.144 307.668 14.4907 308.118 14.872H311.238L311.758 15.392H309.73C309.869 15.5307 309.99 15.6693 310.094 15.808C310.233 15.912 310.354 16.0333 310.458 16.172H311.394C311.533 16.3107 311.654 16.484 311.758 16.692C311.897 16.8653 312.036 17.0387 312.174 17.212H311.186C311.221 17.2813 311.29 17.368 311.394 17.472H308.794L309.106 17.992H310.302L310.458 18.252H311.81C311.81 18.2867 311.845 18.3733 311.914 18.512H312.07L312.538 19.552L312.85 20.332H312.902L313.058 20.852H312.434L312.538 21.112H313.006L313.11 21.372H313.942C313.942 21.4067 313.942 21.4413 313.942 21.476C313.977 21.5107 313.994 21.5627 313.994 21.632H313.578L313.734 22.152H311.758L311.914 23.192H319.246V23.452H315.398C315.398 23.4867 315.398 23.5213 315.398 23.556C315.433 23.5907 315.45 23.6427 315.45 23.712H311.966C312.001 23.7813 312.018 23.868 312.018 23.972H320.286C320.286 24.1107 320.286 24.2493 320.286 24.388C320.286 24.492 320.304 24.6133 320.338 24.752H311.29ZM295.482 21.372V21.632H297.146V22.048H301.306V21.632H301.67V21.372H300.838V21.112H300.318C300.318 21.008 300.301 20.9213 300.266 20.852H300.89C300.89 20.7133 300.856 20.54 300.786 20.332H300.734C300.7 20.02 300.596 19.76 300.422 19.552C300.076 18.9973 299.538 18.72 298.81 18.72C298.117 18.72 297.597 18.9973 297.25 19.552H298.186C298.048 19.76 297.944 20.02 297.874 20.332H296.834C296.834 20.4013 296.817 20.488 296.782 20.592C296.782 20.6613 296.765 20.748 296.73 20.852H295.482C295.482 20.956 295.465 21.0427 295.43 21.112H296.73V21.372H295.482Z" fill="#FFD600"/>
</svg>
